<svg id="SvgjsSvg1016" width="5000" height="4251" xmlns="http://www.w3.org/2000/svg" version="1.1" xmlns:xlink="http://www.w3.org/1999/xlink" xmlns:svgjs="http://svgjs.com/svgjs" viewBox="0 0 293.65625 249.6875"><defs id="SvgjsDefs1017"></defs><g id="SvgjsG1019" transform="rotate(0 146.828125 66.953125)"><svg width="153" viewBox="0 0 81 70.8984375" xmlns="http://www.w3.org/2000/svg" version="1.1" xmlns:xlink="http://www.w3.org/1999/xlink" xmlns:svgjs="http://svgjs.com/svgjs" preserveAspectRatio="none" height="133.90625" x="70.328125" y="0" fill="#000000" stroke="none"><g><svg xmlns="http://www.w3.org/2000/svg" xmlns:xlink="http://www.w3.org/1999/xlink" version="1.1" x="0px" y="0px" viewBox="9.5 14.55078125 81 70.8984375" style="enable-background:new 0 0 100 100;" xml:space="preserve" width="81" height="70.8984375"><g><path d="M48.8637695,71.5507812C49.1489258,71.8813477,49.5634766,72.0712891,50,72.0712891   s0.8510742-0.1899414,1.1362305-0.5205078l25.7348633-29.8466797c0.449707-0.5219727,0.4863281-1.2832031,0.0883789-1.8457031   L69.265625,28.980957c-0.28125-0.3974609-0.737793-0.6337891-1.2246094-0.6337891H31.9589844   c-0.4868164,0-0.9433594,0.2363281-1.2246094,0.6337891l-7.6938477,10.8774414   c-0.3979492,0.5625-0.3613281,1.3237305,0.0883789,1.8457031L48.8637695,71.5507812z M60.0219727,41.7246094h12.8700562   L52.7567139,65.0772095L60.0219727,41.7246094z M50,67.2045288l-7.927124-25.4799194h15.854248L50,67.2045288z M50,31.3877563   l7.1168823,8.336853H42.8831177L50,31.3877563z M40.7368164,39.1577148l-6.2869873-7.8105469h12.9545288L40.7368164,39.1577148z    M52.5956421,31.347168h12.9545288l-6.2869873,7.8105469L52.5956421,31.347168z M47.2432861,65.0772095L27.1079712,41.7246094   h12.8700562L47.2432861,65.0772095z M73.1902466,39.7246094H61.3740234l6.2893677-7.8137207L73.1902466,39.7246094z    M32.3366089,31.9108887l6.2893677,7.8137207H26.8097534L32.3366089,31.9108887z"></path><path d="M89,39.2246094h-5.3061523c-0.8286133,0-1.5,0.6713867-1.5,1.5s0.6713867,1.5,1.5,1.5H89   c0.8286133,0,1.5-0.6713867,1.5-1.5S89.8286133,39.2246094,89,39.2246094z"></path><path d="M50.1328125,21.8569336c0.8286133,0,1.5-0.6713867,1.5-1.5v-4.3061523c0-0.8286133-0.6713867-1.5-1.5-1.5   s-1.5,0.6713867-1.5,1.5v4.3061523C48.6328125,21.1855469,49.3041992,21.8569336,50.1328125,21.8569336z"></path><path d="M50.1328125,78.1430664c-0.8286133,0-1.5,0.6713867-1.5,1.5v4.3061523c0,0.8286133,0.6713867,1.5,1.5,1.5   s1.5-0.6713867,1.5-1.5v-4.3061523C51.6328125,78.8144531,50.9614258,78.1430664,50.1328125,78.1430664z"></path><path d="M16.3061523,39.2246094H11c-0.8286133,0-1.5,0.6713867-1.5,1.5s0.6713867,1.5,1.5,1.5h5.3061523   c0.8286133,0,1.5-0.6713867,1.5-1.5S17.1347656,39.2246094,16.3061523,39.2246094z"></path><path d="M25.0170898,22.9560547c0.3837891,0,0.7675781-0.1464844,1.0605469-0.4394531   c0.5859375-0.5854492,0.5859375-1.5356445,0-2.1210938l-2.7519531-2.7519531c-0.5859375-0.5859375-1.5351562-0.5859375-2.1210938,0   c-0.5859375,0.5854492-0.5859375,1.5356445,0,2.1210938l2.7519531,2.7519531   C24.2495117,22.8095703,24.6333008,22.9560547,25.0170898,22.9560547z"></path><path d="M26.1606445,56.4257812l-2.7519531,2.7519531c-0.5859375,0.5854492-0.5859375,1.5356445,0,2.1210938   c0.2929688,0.2929688,0.6767578,0.4394531,1.0605469,0.4394531s0.7675781-0.1464844,1.0605469-0.4394531l2.7519531-2.7519531   c0.5859375-0.5854492,0.5859375-1.5356445,0-2.1210938C27.6958008,55.8398438,26.746582,55.8398438,26.1606445,56.4257812z"></path><path d="M37.0620117,69.7148438l-2.7519531,2.7519531c-0.5859375,0.5854492-0.5859375,1.5356445,0,2.1210938   c0.2929688,0.2929688,0.6767578,0.4394531,1.0605469,0.4394531s0.7675781-0.1464844,1.0605469-0.4394531l2.7519531-2.7519531   c0.5859375-0.5854492,0.5859375-1.5356445,0-2.1210938C38.597168,69.1289062,37.6479492,69.1289062,37.0620117,69.7148438z"></path><path d="M75.9394531,18.6435547L73.1875,21.3955078c-0.5859375,0.5854492-0.5859375,1.5356445,0,2.1210938   c0.2929688,0.2929688,0.6767578,0.4394531,1.0605469,0.4394531s0.7675781-0.1464844,1.0605469-0.4394531l2.7519531-2.7519531   c0.5859375-0.5854492,0.5859375-1.5356445,0-2.1210938C77.4746094,18.0576172,76.5253906,18.0576172,75.9394531,18.6435547z"></path><path d="M74.1044922,56.4257812c-0.5859375-0.5859375-1.5351562-0.5859375-2.1210938,0   c-0.5859375,0.5854492-0.5859375,1.5356445,0,2.1210938l2.7519531,2.7519531   c0.2929688,0.2929688,0.6767578,0.4394531,1.0605469,0.4394531s0.7675781-0.1464844,1.0605469-0.4394531   c0.5859375-0.5854492,0.5859375-1.5356445,0-2.1210938L74.1044922,56.4257812z"></path><path d="M63.203125,69.7148438c-0.5859375-0.5859375-1.5351562-0.5859375-2.1210938,0   c-0.5859375,0.5854492-0.5859375,1.5356445,0,2.1210938l2.7519531,2.7519531   c0.2929688,0.2929688,0.6767578,0.4394531,1.0605469,0.4394531s0.7675781-0.1464844,1.0605469-0.4394531   c0.5859375-0.5854492,0.5859375-1.5356445,0-2.1210938L63.203125,69.7148438z"></path></g></svg></g><defs id="SvgjsDefs1018"></defs></svg></g><g id="SvgjsG1021" transform="rotate(0 146.828125 187.875)"><svg xmlns="http://www.w3.org/2000/svg" xmlns:xlink="http://www.w3.org/1999/xlink" width="293.65625" viewBox="-145.0193328857422 -28.601619720458984 293.666015625 47.95342254638672" overflow="visible" style="overflow: visible;" transform="" version="1.1" xmlns:svgjs="http://svgjs.com/svgjs" preserveAspectRatio="none" height="47.9375" x="0" y="163.90625" fill="#000000" stroke="none"><g transform="rotate(0 1.8136749267578125 -4.624908447265625)"><path transform="translate(-9.7509765625 0) rotate(-14.346512165218915 11.98681640625 526.3482404547979)" stroke="none" fill="#000000" d="M10.93-28.85L11.67-28.85L11.67-28.85Q17.14-28.85 19.03-27.89L19.03-27.89L19.03-27.89Q20.45-27.17 20.45-24.20L20.45-24.20L20.45-24.20Q20.45-21.23 19.44-21.23L19.44-21.23L19.44-21.23Q18.62-21.23 16.75-22.96L16.75-22.96L16.75-22.96Q14.89-24.69 13.92-25.22L13.92-25.22L13.92-25.22Q12.96-25.76 11.41-25.76L11.41-25.76L11.41-25.76Q9.86-25.76 8.77-24.75L8.77-24.75L8.77-24.75Q7.67-23.75 7.67-22.35L7.67-22.35L7.67-22.35Q7.67-20.49 9.72-19.01L9.72-19.01L9.72-19.01Q10.75-18.27 14.46-16.61L14.46-16.61L14.46-16.61Q18.17-14.95 19.75-13.35L19.75-13.35L19.75-13.35Q21.98-11.07 21.98-8.22L21.98-8.22L21.98-8.22Q21.98-2.28 16.10-0.21L16.10-0.21L16.10-0.21Q14.36 0.41 12.53 0.41L12.53 0.41L11.79 0.41L11.79 0.41Q9.54 0.41 6.79-0.10L6.79-0.10L6.79-0.10Q4.04-0.62 3.32-1.11L3.32-1.11L3.32-1.11Q1.99-2.03 1.99-5.39L1.99-5.39L1.99-6.09L1.99-6.09Q1.99-8.26 3.16-8.26L3.16-8.26L3.16-8.26Q3.98-8.26 5.76-6.17L5.76-6.17L5.76-6.17Q7.55-4.08 8.77-3.38L8.77-3.38L8.77-3.38Q9.99-2.69 11.88-2.69L11.88-2.69L11.88-2.69Q13.78-2.69 15.07-3.77L15.07-3.77L15.07-3.77Q16.37-4.86 16.37-6.13L16.37-6.13L16.37-6.13Q16.37-8.04 15.22-9.27L15.22-9.27L15.22-9.27Q14.07-10.50 10.64-12.08L10.64-12.08L10.64-12.08Q7.22-13.66 5.91-14.62L5.91-14.62L5.91-14.62Q2.30-17.29 2.30-21.02L2.30-21.02L2.30-21.02Q2.30-21.80 2.46-22.64L2.46-22.64L2.46-22.64Q3.14-26.17 6.99-27.97L6.99-27.97L6.99-27.97Q8.88-28.85 10.93-28.85L10.93-28.85Z"></path>,<path transform="translate(-13.1142578125 0) rotate(-11.641678498362197 14.9091796875 526.3482404547979)" stroke="none" fill="#000000" d="M10.32-12.39L10.32-12.39L10.32-12.18L10.32-12.18Q10.32-11.94 12.22-11.94L12.22-11.94L14.58-11.94L14.58-11.94Q17.39-11.94 17.39-12.26L17.39-12.26L17.39-12.26Q17.39-13.15 15.65-17.68L15.65-17.68L15.65-17.68Q13.90-22.21 13.85-22.21L13.85-22.21L13.85-22.21Q13.80-22.21 12.06-17.67L12.06-17.67L12.06-17.67Q10.32-13.13 10.32-12.39ZM14.36-28.51L14.36-28.51L14.95-28.51L14.95-28.51Q16.47-28.51 18.35-25.27L18.35-25.27L18.35-25.27Q19.01-24.14 20.32-20.59L20.32-20.59L20.32-20.59Q21.64-17.04 22.58-14.70L22.58-14.70L22.58-14.70Q23.52-12.37 24.64-9.14L24.64-9.14L24.64-9.14Q25.76-5.91 26.26-4.85L26.26-4.85L26.26-4.85Q26.76-3.79 28.05-2.83L28.05-2.83L28.05-2.83Q29.35-1.87 29.35-1.16L29.35-1.16L29.35-1.16Q29.35-0.45 28.46-0.23L28.46-0.23L28.46-0.23Q27.03 0.12 21.35 0.12L21.35 0.12L21.35 0.12Q18.76 0.12 18.76-0.98L18.76-0.98L18.76-0.98Q18.76-1.27 19.17-2.39L19.17-2.39L19.17-2.39Q19.58-3.51 19.58-4.04L19.58-4.04L19.58-4.04Q19.58-6.56 18.38-8.29L18.38-8.29L18.38-8.29Q17.88-8.98 15.28-8.98L15.28-8.98L15.28-8.98Q10.50-8.98 9.87-8.67L9.87-8.67L9.87-8.67Q9.25-8.37 8.60-7.12L8.60-7.12L8.60-7.12Q7.96-5.87 7.96-4.80L7.96-4.80L7.96-4.80Q7.96-3.73 8.54-2.50L8.54-2.50L8.54-2.50Q9.13-1.27 9.13-0.57L9.13-0.57L9.13-0.57Q9.13 0.29 7.28 0.29L7.28 0.29L7.28 0.29Q2.89 0.29 1.42-0.12L1.42-0.12L1.42-0.12Q0.47-0.39 0.47-1.46L0.47-1.46L0.47-1.46Q0.47-1.60 2.34-3.24L2.34-3.24L2.34-3.24Q3.36-4.14 3.98-5.60L3.98-5.60L3.98-5.60Q8.41-16.16 9.61-20.91L9.61-20.91L9.61-20.91Q10.81-25.66 11.65-27.08L11.65-27.08L11.65-27.08Q12.49-28.51 14.36-28.51Z"></path>,<path transform="translate(-17.76953125 0) rotate(-7.98829314283372 20.015625 526.3482404547979)" stroke="none" fill="#000000" d="M27.64-26.31L27.64-26.31Q29.18-28.05 32.29-28.05L32.29-28.05L32.29-28.05Q35.40-28.05 36.22-27.60L36.22-27.60L36.77-27.09L36.77-27.09Q36.77-26.35 35.95-25.38L35.95-25.38L35.95-25.38Q35.13-24.40 35.01-24.08L35.01-24.08L35.01-24.08Q34.54-22.89 34.54-20.75L34.54-20.75L34.54-20.75Q34.54-18.62 34.60-17.17L34.60-17.17L34.80-13.54L34.80-13.54Q34.90-11.09 34.90-8.06L34.90-8.06L34.90-8.06Q34.90-5.02 35.18-4.26L35.18-4.26L35.18-4.26Q35.46-3.49 36.26-2.81L36.26-2.81L37.43-1.78L37.43-1.78Q37.43-0.62 34.97-0.62L34.97-0.62L34.97-0.62Q31.54-0.62 29.55-1.07L29.55-1.07L29.55-1.07Q28.14-1.39 28.14-2.36L28.14-2.36L28.28-2.93L28.28-2.93Q29.04-5.33 29.04-6.53L29.04-6.53L29.04-6.53Q29.04-7.73 28.76-11.05L28.76-11.05L28.76-11.05Q28.49-14.38 28.49-17.02L28.49-17.02L28.49-17.02Q28.49-19.67 28.28-19.67L28.28-19.67L28.28-19.67Q27.75-19.67 25.18-12.82L25.18-12.82L25.18-12.82Q22.62-5.97 21.64-4.04L21.64-4.04L21.64-4.04Q20.20-1.21 18.82-1.21L18.82-1.21L18.82-1.21Q17.43-1.21 16.59-2.91L16.59-2.91L16.12-4.04L16.12-4.04Q15.89-4.61 14.77-7.51L14.77-7.51L12.94-12.12L12.94-12.12Q10.03-19.46 9.40-19.46L9.40-19.46L9.40-19.46Q8.78-19.46 8.78-13.82L8.78-13.82L8.78-13.82Q8.78-11.14 8.88-9.25L8.88-9.25L9.04-7.10L9.04-7.10Q9.13-6.05 9.13-5.00L9.13-5.00L9.21-4.02L9.31-3.20L9.31-3.20Q9.37-2.56 9.37-1.52L9.37-1.52L9.02-1.11L9.02-1.11Q8.08-0.43 6.44-0.43L6.44-0.43L6.44-0.43Q2.60-0.43 2.60-1.39L2.60-1.39L2.60-1.39Q2.60-1.80 3.39-2.89L3.39-2.89L3.39-2.89Q4.18-3.98 4.49-4.95L4.49-4.95L4.49-4.95Q4.80-5.93 4.80-9.23L4.80-9.23L4.84-10.44L4.92-11.67L4.92-11.67Q5.21-17.41 5.21-19.34L5.21-19.34L5.21-19.34Q5.21-21.27 4.95-22.39L4.95-22.39L4.95-22.39Q4.70-23.52 3.78-25.03L3.78-25.03L3.78-25.03Q2.87-26.54 2.87-27.19L2.87-27.19L3.30-27.69L3.30-27.69Q4.16-28.32 5.11-28.32L5.11-28.32L6.21-28.32L6.21-28.32Q8.24-28.32 9.99-27.53L9.99-27.53L9.99-27.53Q11.73-26.74 12.63-25.43L12.63-25.43L13.21-24.49L13.21-24.49Q13.90-23.24 14.62-21.36L14.62-21.36L14.62-21.36Q15.34-19.48 16.71-16.40L16.71-16.40L16.71-16.40Q18.09-13.31 19.07-11.69L19.07-11.69L19.61-11.01L19.61-11.01Q20.18-11.01 23.55-18.25L23.55-18.25L23.55-18.25Q26.93-25.49 27.64-26.31L27.64-26.31Z"></path>,<path transform="translate(-11.37109375 0) rotate(-4.541114676146931 13.822265625 526.3482404547979)" stroke="none" fill="#000000" d="M10.71-18.05L10.71-15.40L10.71-15.40Q10.71-14.23 11.13-13.81L11.13-13.81L11.13-13.81Q11.55-13.39 13.00-13.39L13.00-13.39L13.99-13.39L13.99-13.39Q16.10-13.39 17.43-14.97L17.43-14.97L17.43-14.97Q18.76-16.55 18.76-19.44L18.76-19.44L18.74-19.65L18.74-19.65Q18.74-22.56 17.23-24.22L17.23-24.22L17.23-24.22Q15.71-25.88 13.37-25.88L13.37-25.88L12.86-25.88L12.86-25.88Q11.14-25.88 10.83-25.04L10.83-25.04L10.83-25.04Q10.73-24.77 10.73-21.94L10.73-21.94L10.73-18.83L10.71-18.05ZM2.32-1.03L2.32-1.03L2.32-1.03Q2.32-2.44 3.53-3.27L3.53-3.27L3.53-3.27Q4.74-4.10 4.92-5.13L4.92-5.13L4.92-5.13Q5.21-6.75 5.21-14.38L5.21-14.38L5.21-14.38Q5.21-22.00 4.84-23.53L4.84-23.53L4.84-23.53Q4.47-25.06 3.79-25.63L3.79-25.63L3.79-25.63Q2.32-26.87 2.32-27.23L2.32-27.23L2.32-27.56L2.32-27.56Q2.32-28.40 3.86-28.63L3.86-28.63L3.86-28.63Q4.29-28.69 8.22-28.69L8.22-28.69L10.93-28.73L11.46-28.73L13.08-28.67L14.72-28.67L14.72-28.67Q21.98-28.67 24.40-24.18L24.40-24.18L24.40-24.18Q25.33-22.46 25.33-20.53L25.33-20.53L25.33-19.95L25.33-19.95Q25.33-16.51 22.80-14.14L22.80-14.14L22.80-14.14Q20.28-11.77 15.69-11.36L15.69-11.36L15.69-11.36Q12.98-11.12 12.63-10.95L12.63-10.95L12.63-10.95Q11.26-10.34 11.26-6.38L11.26-6.38L11.26-6.38Q11.26-4.55 12.53-3.53L12.53-3.53L12.53-3.53Q14.23-2.15 14.23-1.21L14.23-1.21L14.23-1.21Q14.23-0.47 12.66-0.18L12.66-0.18L12.66-0.18Q11.09 0.10 8.12 0.10L8.12 0.10L8.12 0.10Q2.32 0.10 2.32-1.03Z"></path>,<path transform="translate(-10.6123046875 0) rotate(-1.9405974354101225 12.9609375 526.3482404547979)" stroke="none" fill="#000000" d="M13.64-27.25L13.64-27.25L13.64-27.25Q13.64-26.99 12.38-25.56L12.38-25.56L12.38-25.56Q11.12-24.14 10.88-23.15L10.88-23.15L10.88-23.15Q10.64-22.17 10.64-13.75L10.64-13.75L10.64-13.75Q10.64-5.33 10.88-4.45L10.88-4.45L10.88-4.45Q11.12-3.57 11.87-3.25L11.87-3.25L11.87-3.25Q12.63-2.93 14.48-2.93L14.48-2.93L14.48-2.93Q16.32-2.93 17.71-3.61L17.71-3.61L17.71-3.61Q19.09-4.29 20.69-6.03L20.69-6.03L20.69-6.03Q22.29-7.77 23.44-7.77L23.44-7.77L23.44-7.77Q24.32-7.77 24.32-6.67L24.32-6.67L24.32-6.13L24.32-6.13Q24.32-4.59 23.83-2.72L23.83-2.72L23.83-2.72Q23.34-0.84 23.05-0.57L23.05-0.57L23.05-0.57Q22.42 0.02 19.97 0.02L19.97 0.02L8.96 0.02L8.96 0.02Q3.57 0.02 2.99-0.08L2.99-0.08L2.99-0.08Q2.01-0.27 2.01-1.19L2.01-1.19L2.01-1.19Q2.01-1.68 3.10-2.77L3.10-2.77L3.10-2.77Q4.18-3.86 4.59-5.60L4.59-5.60L4.59-5.60Q4.76-6.30 4.76-14.79L4.76-14.79L4.76-14.79Q4.76-23.28 4.51-24.10L4.51-24.10L4.51-24.10Q4.27-24.92 2.93-25.76L2.93-25.76L2.93-25.76Q1.60-26.60 1.60-27.64L1.60-27.64L1.60-27.64Q1.60-28.49 5.60-28.49L5.60-28.49L11.03-28.49L11.03-28.49Q12.63-28.49 13.14-28.25L13.14-28.25L13.14-28.25Q13.64-28.01 13.64-27.25Z"></path>,<path transform="translate(-11.1044921875 0) rotate(0.6283822811508983 13.19677734375 526.3482404547979)" stroke="none" fill="#000000" d="M23.56-24.88L23.56-24.88L23.56-24.88Q23.56-23.50 23.17-23.08L23.17-23.08L23.17-23.08Q22.78-22.66 21.98-22.66L21.98-22.66L21.62-22.85L21.18-23.13L20.69-23.42L20.69-23.42Q19.97-23.83 17.93-24.55L17.93-24.55L17.93-24.55Q15.89-25.27 14.13-25.27L14.13-25.27L14.13-25.27Q12.37-25.27 11.56-23.99L11.56-23.99L11.56-23.99Q10.75-22.72 10.75-18.76L10.75-18.76L10.75-18.76Q10.75-17.64 11.44-16.96L11.44-16.96L11.44-16.96Q12.14-16.28 13.37-16.28L13.37-16.28L13.37-16.28Q14.60-16.28 16.09-17.14L16.09-17.14L16.09-17.14Q17.58-18.01 18.20-18.01L18.20-18.01L18.20-18.01Q18.83-18.01 19.30-17.18L19.30-17.18L19.30-17.18Q19.77-16.34 19.77-15.20L19.77-15.20L19.77-15.20Q19.77-12.10 19.09-11.38L19.09-11.38L18.54-11.07L18.54-11.07Q17.33-11.07 16.61-11.63L16.61-11.63L16.61-11.63Q15.03-12.84 14.29-12.84L14.29-12.84L14.29-12.84Q11.96-12.84 11.16-11.85L11.16-11.85L11.16-11.85Q10.77-11.36 10.77-8.48L10.77-8.48L10.77-8.48Q10.77-5.60 11.94-4.10L11.94-4.10L11.94-4.10Q12.55-3.30 14.64-3.30L14.64-3.30L14.64-3.30Q16.73-3.30 19.98-4.73L19.98-4.73L19.98-4.73Q23.24-6.15 23.71-6.15L23.71-6.15L23.71-6.15Q24.59-6.15 24.59-4.49L24.59-4.49L24.59-3.75L24.59-3.75Q24.59-3.18 24.18-2.15L24.18-2.15L24.18-2.15Q23.77-1.13 22.91-0.55L22.91-0.55L22.91-0.55Q22.05 0.02 20.08 0.02L20.08 0.02L5.21 0.02L5.21 0.02Q1.80 0.02 1.80-0.86L1.80-0.86L1.80-1.52L1.80-1.52Q1.80-2.21 3.07-2.91L3.07-2.91L3.07-2.91Q4.33-3.61 4.54-4.42L4.54-4.42L4.54-4.42Q4.76-5.23 4.76-13.84L4.76-13.84L4.76-13.84Q4.76-22.46 4.47-23.60L4.47-23.60L4.47-23.60Q4.18-24.75 3.04-25.72L3.04-25.72L3.04-25.72Q1.89-26.68 1.89-27.62L1.89-27.62L1.89-27.62Q1.89-28.30 3.36-28.39L3.36-28.39L3.36-28.39Q4.84-28.49 13.06-28.49L13.06-28.49L18.40-28.51L19.26-28.51L19.26-28.51Q21.33-28.51 22.17-27.91L22.17-27.91L22.17-27.91Q23.56-26.93 23.56-24.88Z"></path>,<path transform="translate(-3.32177734375 0) rotate(2.3349320096740414 0 526.3482404547979)" stroke="none" fill="#000000" d=""></path>,<path transform="translate(-3.32177734375 0) rotate(3.1208286286040092 0 526.3482404547979)" stroke="none" fill="#000000" d=""></path>,<path transform="translate(-10.2841796875 0) rotate(4.730339821201653 12.9609375 526.3482404547979)" stroke="none" fill="#000000" d="M13.64-27.25L13.64-27.25L13.64-27.25Q13.64-26.99 12.38-25.56L12.38-25.56L12.38-25.56Q11.12-24.14 10.88-23.15L10.88-23.15L10.88-23.15Q10.64-22.17 10.64-13.75L10.64-13.75L10.64-13.75Q10.64-5.33 10.88-4.45L10.88-4.45L10.88-4.45Q11.12-3.57 11.87-3.25L11.87-3.25L11.87-3.25Q12.63-2.93 14.48-2.93L14.48-2.93L14.48-2.93Q16.32-2.93 17.71-3.61L17.71-3.61L17.71-3.61Q19.09-4.29 20.69-6.03L20.69-6.03L20.69-6.03Q22.29-7.77 23.44-7.77L23.44-7.77L23.44-7.77Q24.32-7.77 24.32-6.67L24.32-6.67L24.32-6.13L24.32-6.13Q24.32-4.59 23.83-2.72L23.83-2.72L23.83-2.72Q23.34-0.84 23.05-0.57L23.05-0.57L23.05-0.57Q22.42 0.02 19.97 0.02L19.97 0.02L8.96 0.02L8.96 0.02Q3.57 0.02 2.99-0.08L2.99-0.08L2.99-0.08Q2.01-0.27 2.01-1.19L2.01-1.19L2.01-1.19Q2.01-1.68 3.10-2.77L3.10-2.77L3.10-2.77Q4.18-3.86 4.59-5.60L4.59-5.60L4.59-5.60Q4.76-6.30 4.76-14.79L4.76-14.79L4.76-14.79Q4.76-23.28 4.51-24.10L4.51-24.10L4.51-24.10Q4.27-24.92 2.93-25.76L2.93-25.76L2.93-25.76Q1.60-26.60 1.60-27.64L1.60-27.64L1.60-27.64Q1.60-28.49 5.60-28.49L5.60-28.49L11.03-28.49L11.03-28.49Q12.63-28.49 13.14-28.25L13.14-28.25L13.14-28.25Q13.64-28.01 13.64-27.25Z"></path>,<path transform="translate(-13.71923828125 0) rotate(7.569814456655003 15.8115234375 526.3482404547979)" stroke="none" fill="#000000" d="M22.62-13.10L22.62-13.10L22.62-14.48L22.62-14.48Q22.62-16.57 22.07-18.87L22.07-18.87L22.07-18.87Q20.96-23.44 18.17-25.20L18.17-25.20L18.17-25.20Q16.92-25.98 15.30-25.98L15.30-25.98L14.99-25.98L14.99-25.98Q13.66-25.98 12.26-25.18L12.26-25.18L12.26-25.18Q9.56-23.63 8.55-19.69L8.55-19.69L8.55-19.69Q7.92-17.23 7.92-14.79L7.92-14.79L7.92-14.09L7.92-14.09Q7.92-11.69 8.53-9.35L8.53-9.35L8.53-9.35Q9.76-4.74 12.76-2.95L12.76-2.95L12.76-2.95Q13.99-2.21 15.30-2.21L15.30-2.21L15.91-2.21L15.91-2.21Q17.31-2.21 18.60-3.02L18.60-3.02L18.60-3.02Q19.89-3.83 20.71-5.21L20.71-5.21L20.71-5.21Q22.62-8.39 22.62-13.10ZM2.01-13.99L2.01-13.99L2.01-13.99Q2.01-17.27 3.01-20.06L3.01-20.06L3.01-20.06Q4.96-25.51 9.84-27.62L9.84-27.62L9.84-27.62Q12.67-28.85 15.63-28.85L15.63-28.85L16.12-28.83L16.59-28.83L16.59-28.83Q18.97-28.83 21.53-27.75L21.53-27.75L21.53-27.75Q24.10-26.66 25.91-24.66L25.91-24.66L25.91-24.66Q27.73-22.66 28.67-20.01L28.67-20.01L28.67-20.01Q29.61-17.35 29.61-14.62L29.61-14.62L29.61-14.15L29.61-14.15Q29.61-11.05 28.58-8.23L28.58-8.23L28.58-8.23Q27.54-5.41 25.59-3.40L25.59-3.40L25.59-3.40Q21.66 0.68 15.16 0.70L15.16 0.70L15.16 0.70Q12.49 0.70 10.02-0.32L10.02-0.32L10.02-0.32Q7.55-1.33 5.89-3.16L5.89-3.16L5.89-3.16Q2.01-7.46 2.01-13.99Z"></path>,<path transform="translate(-12.93994140625 0) rotate(10.723451352167157 14.96044921875 526.3482404547979)" stroke="none" fill="#000000" d="M16.43-3.06L16.43-3.06L16.43-3.06Q20.67-3.08 20.67-7.34L20.67-7.34L20.67-7.34Q20.67-9.64 19.97-10.52L19.97-10.52L19.97-10.52Q18.79-12.06 18.79-12.37L18.79-12.37L18.79-12.37Q18.79-13.58 22.62-13.58L22.62-13.58L22.62-13.58Q25.45-13.58 27.09-13.19L27.09-13.19L27.09-13.19Q28.24-12.92 28.24-12.02L28.24-12.02L28.24-12.02Q28.24-11.50 27.74-10.71L27.74-10.71L27.74-10.71Q27.23-9.91 27.15-9.41L27.15-9.41L27.15-9.41Q27.07-8.92 26.85-6.82L26.85-6.82L26.85-6.82Q26.64-4.72 26.62-4.55L26.62-4.55L26.62-4.55Q26.35-2.67 25.60-1.99L25.60-1.99L25.60-1.99Q24.86-1.31 23.07-0.78L23.07-0.78L23.07-0.78Q19.32 0.35 16.08 0.35L16.08 0.35L15.26 0.35L15.26 0.35Q12.39 0.35 9.72-0.76L9.72-0.76L9.72-0.76Q4.57-2.89 2.67-8.00L2.67-8.00L2.67-8.00Q1.68-10.64 1.68-13.66L1.68-13.66L1.68-14.52L1.68-14.52Q1.68-17.39 2.83-20.14L2.83-20.14L2.83-20.14Q5.17-25.78 10.52-27.81L10.52-27.81L10.52-27.81Q12.98-28.75 16.10-28.75L16.10-28.75L16.10-28.75Q17.08-28.75 18.40-28.57L18.40-28.57L18.40-28.57Q19.71-28.38 21.73-28.38L21.73-28.38L21.73-28.38Q23.75-28.38 24.95-27.49L24.95-27.49L24.95-27.49Q26.15-26.60 26.15-24.32L26.15-24.32L26.15-24.32Q26.15-21.18 24.92-21.18L24.92-21.18L24.92-21.18Q24.34-21.18 22.21-22.78L22.21-22.78L22.21-22.78Q20.08-24.38 18.93-24.88L18.93-24.88L18.93-24.88Q17.78-25.37 15.89-25.37L15.89-25.37L15.89-25.37Q14.01-25.35 12.49-24.45L12.49-24.45L12.49-24.45Q7.98-21.74 7.98-14.48L7.98-14.48L7.98-14.48Q7.98-9.33 10.42-6.19L10.42-6.19L10.42-6.19Q12.86-3.06 16.43-3.06Z"></path>,<path transform="translate(-13.71923828125 0) rotate(13.87708824767931 15.8115234375 526.3482404547979)" stroke="none" fill="#000000" d="M22.62-13.10L22.62-13.10L22.62-14.48L22.62-14.48Q22.62-16.57 22.07-18.87L22.07-18.87L22.07-18.87Q20.96-23.44 18.17-25.20L18.17-25.20L18.17-25.20Q16.92-25.98 15.30-25.98L15.30-25.98L14.99-25.98L14.99-25.98Q13.66-25.98 12.26-25.18L12.26-25.18L12.26-25.18Q9.56-23.63 8.55-19.69L8.55-19.69L8.55-19.69Q7.92-17.23 7.92-14.79L7.92-14.79L7.92-14.09L7.92-14.09Q7.92-11.69 8.53-9.35L8.53-9.35L8.53-9.35Q9.76-4.74 12.76-2.95L12.76-2.95L12.76-2.95Q13.99-2.21 15.30-2.21L15.30-2.21L15.91-2.21L15.91-2.21Q17.31-2.21 18.60-3.02L18.60-3.02L18.60-3.02Q19.89-3.83 20.71-5.21L20.71-5.21L20.71-5.21Q22.62-8.39 22.62-13.10ZM2.01-13.99L2.01-13.99L2.01-13.99Q2.01-17.27 3.01-20.06L3.01-20.06L3.01-20.06Q4.96-25.51 9.84-27.62L9.84-27.62L9.84-27.62Q12.67-28.85 15.63-28.85L15.63-28.85L16.12-28.83L16.59-28.83L16.59-28.83Q18.97-28.83 21.53-27.75L21.53-27.75L21.53-27.75Q24.10-26.66 25.91-24.66L25.91-24.66L25.91-24.66Q27.73-22.66 28.67-20.01L28.67-20.01L28.67-20.01Q29.61-17.35 29.61-14.62L29.61-14.62L29.61-14.15L29.61-14.15Q29.61-11.05 28.58-8.23L28.58-8.23L28.58-8.23Q27.54-5.41 25.59-3.40L25.59-3.40L25.59-3.40Q21.66 0.68 15.16 0.70L15.16 0.70L15.16 0.70Q12.49 0.70 10.02-0.32L10.02-0.32L10.02-0.32Q7.55-1.33 5.89-3.16L5.89-3.16L5.89-3.16Q2.01-7.46 2.01-13.99Z"></path></g><defs id="SvgjsDefs1020"></defs></svg></g><g id="SvgjsG1023" transform="rotate(0 146.8203125 236.265625)"><svg xmlns="http://www.w3.org/2000/svg" xmlns:xlink="http://www.w3.org/1999/xlink" width="170.328125" viewBox="0.550000011920929 3.7300000190734863 170.33999633789062 20.850000381469727" overflow="visible" style="overflow: visible;" transform="" version="1.1" xmlns:svgjs="http://svgjs.com/svgjs" preserveAspectRatio="none" height="20.84375" x="61.65625" y="225.84375" fill="#000000" stroke="none"><path stroke="none" fill="#000000" d="M4.08 19.09L4.08 19.09L4.08 19.09Q4.08 18.84 4.80 18.47L4.80 18.47L4.80 18.47Q5.52 18.10 5.68 17.26L5.68 17.26L5.68 17.26Q5.84 16.41 5.84 11.71L5.84 11.71L5.84 11.71Q5.84 7.01 5.67 6.48L5.67 6.48L5.67 6.48Q5.49 5.94 4.36 5.94L4.36 5.94L4.36 5.94Q3.23 5.94 2.73 6.22L2.73 6.22L2.73 6.22Q2.22 6.50 1.88 7.04L1.88 7.04L1.88 7.04Q1.17 8.13 1.05 8.13L1.05 8.13L1.05 8.13Q0.55 8.13 0.55 7.51L0.55 7.51L0.55 7.19L0.55 7.19Q0.55 4.98 1.05 4.73L1.05 4.73L1.05 4.73Q1.25 4.63 6.66 4.63L6.66 4.63L11.08 4.64L11.08 4.64Q11.43 4.64 11.79 4.63L11.79 4.63L12.50 4.61L12.50 4.61Q13.05 4.61 13.23 4.88L13.23 4.88L13.23 4.88Q13.52 5.32 13.52 7.09L13.52 7.09L13.52 7.09Q13.52 8.00 13.23 8.00L13.23 8.00L13.23 8.00Q12.84 8.00 12.39 7.23L12.39 7.23L12.39 7.23Q11.93 6.47 11.42 6.18L11.42 6.18L11.42 6.18Q10.90 5.90 9.74 5.90L9.74 5.90L9.74 5.90Q8.58 5.90 8.37 6.42L8.37 6.42L8.37 6.42Q8.16 6.95 8.16 11.92L8.16 11.92L8.16 11.92Q8.16 16.89 8.28 17.50L8.28 17.50L8.28 17.50Q8.40 18.11 8.79 18.43L8.79 18.43L8.79 18.43Q8.91 18.53 9.35 18.75L9.35 18.75L9.35 18.75Q9.80 18.96 9.80 19.14L9.80 19.14L9.80 19.14Q9.80 19.60 9.06 19.60L9.06 19.60L8.35 19.60L6.24 19.56L6.24 19.56Q4.08 19.56 4.08 19.09ZM16.09 19.02L16.09 19.02L16.09 19.02Q16.09 18.83 16.57 18.35L16.57 18.35L16.57 18.35Q17.05 17.88 17.14 17.26L17.14 17.26L17.14 17.26Q17.23 16.65 17.23 11.92L17.23 11.92L17.23 11.92Q17.23 7.19 17.05 5.89L17.05 5.89L17.05 5.89Q16.96 5.29 16.67 5.08L16.67 5.08L16.67 5.08Q15.91 4.54 15.91 4.50L15.91 4.50L15.91 4.50Q15.91 4.31 16.43 4.06L16.43 4.06L16.43 4.06Q16.94 3.81 18.09 3.81L18.09 3.81L18.09 3.81Q18.84 3.81 19.05 4.34L19.05 4.34L19.05 4.34Q19.20 4.73 19.20 6.09L19.20 6.09L19.17 7.27L19.17 7.27Q19.13 8.46 19.13 8.87L19.13 8.87L19.13 8.87Q19.13 10.14 19.49 10.14L19.49 10.14L19.49 10.14Q19.55 10.14 20.72 9.69L20.72 9.69L20.72 9.69Q21.88 9.24 22.70 9.24L22.70 9.24L22.70 9.24Q24.44 9.24 25.21 10.50L25.21 10.50L25.21 10.50Q25.84 11.53 25.84 14.32L25.84 14.32L25.83 15.13L25.81 15.52L25.80 16.73L25.80 16.73Q25.80 17.80 25.96 18.07L25.96 18.07L25.96 18.07Q26.13 18.35 26.58 18.68L26.58 18.68L26.58 18.68Q27.04 19.00 27.04 19.13L27.04 19.13L27.04 19.13Q27.04 19.55 25.49 19.55L25.49 19.55L25.12 19.57L23.98 19.62L23.98 19.62Q23.01 19.62 23.01 19.25L23.01 19.25L23.01 19.25Q23.01 19.08 23.36 18.65L23.36 18.65L23.36 18.65Q23.71 18.22 23.78 18.05L23.78 18.05L23.78 18.05Q23.86 17.89 23.86 16.37L23.86 16.37L23.84 15.59L23.85 14.37L23.85 14.37Q23.85 11.95 23.41 11.23L23.41 11.23L23.41 11.23Q22.98 10.51 22.08 10.51L22.08 10.51L22.08 10.51Q21.18 10.51 20.47 10.91L20.47 10.91L20.47 10.91Q19.76 11.31 19.50 11.91L19.50 11.91L19.50 11.91Q19.24 12.51 19.24 15.13L19.24 15.13L19.24 15.13Q19.24 17.75 19.37 18.03L19.37 18.03L19.37 18.03Q19.51 18.30 19.91 18.64L19.91 18.64L19.91 18.64Q20.30 18.98 20.30 19.10L20.30 19.10L20.30 19.10Q20.30 19.55 18.20 19.55L18.20 19.55L18.20 19.55Q16.09 19.55 16.09 19.02ZM30.96 5.88L30.96 5.88L30.96 5.58L30.96 5.58Q30.98 5.49 30.98 5.32L30.98 5.32L30.98 5.32Q30.98 5.16 31.34 4.80L31.34 4.80L31.34 4.80Q31.69 4.45 32.06 4.45L32.06 4.45L32.27 4.42L32.44 4.42L32.44 4.42Q32.88 4.42 33.27 4.73L33.27 4.73L33.27 4.73Q33.65 5.05 33.65 5.44L33.65 5.44L33.68 5.69L33.68 5.79L33.64 6.04L33.64 6.04Q33.64 6.36 33.24 6.68L33.24 6.68L33.24 6.68Q32.85 7.00 32.53 7.00L32.53 7.00L32.27 7.04L32.23 7.04L32.19 7.03L32.10 7.03L32.10 7.03Q32.01 7.00 31.97 7.00L31.97 7.00L31.97 7.00Q31.66 7.00 31.31 6.65L31.31 6.65L31.31 6.65Q30.96 6.31 30.96 5.88ZM31.37 19.66L30.72 19.66L30.72 19.66Q30.02 19.66 30.02 19.23L30.02 19.23L30.02 19.23Q30.02 18.95 30.57 18.70L30.57 18.70L30.57 18.70Q31.13 18.44 31.27 17.97L31.27 17.97L31.27 17.97Q31.40 17.49 31.40 14.62L31.40 14.62L31.41 14.29L31.41 13.95L31.42 13.62L31.42 12.96L31.39 11.97L31.39 11.97Q31.39 11.11 31.20 10.88L31.20 10.88L31.20 10.88Q31.01 10.66 30.47 10.51L30.47 10.51L30.47 10.51Q29.92 10.36 29.92 10.08L29.92 10.08L29.92 10.08Q29.92 9.85 30.16 9.71L30.16 9.71L30.16 9.71Q30.91 9.26 32.62 9.26L32.62 9.26L32.62 9.26Q33.24 9.26 33.35 9.70L33.35 9.70L33.35 9.70Q33.40 9.93 33.40 13.79L33.40 13.79L33.40 13.79Q33.40 17.66 33.52 18.07L33.52 18.07L33.52 18.07Q33.64 18.49 34.24 18.73L34.24 18.73L34.24 18.73Q34.85 18.97 34.85 19.16L34.85 19.16L34.85 19.28L34.85 19.28Q34.85 19.59 33.92 19.59L33.92 19.59L33.92 19.59Q33.59 19.62 33.44 19.62L33.44 19.62L32.96 19.63L32.49 19.63L31.37 19.66ZM45.39 16.65L45.39 16.65L45.39 16.94L45.39 16.94Q45.39 17.47 45.11 18.04L45.11 18.04L45.11 18.04Q44.83 18.62 44.26 19.01L44.26 19.01L44.26 19.01Q43.20 19.77 41.64 19.77L41.64 19.77L41.35 19.77L41.35 19.77Q39.33 19.77 38.27 19.21L38.27 19.21L38.27 19.21Q37.76 18.94 37.76 17.92L37.76 17.92L37.76 17.66L37.76 17.66Q37.76 16.55 38.35 16.55L38.35 16.55L38.35 16.55Q38.63 16.55 39.08 17.31L39.08 17.31L39.08 17.31Q39.53 18.07 39.86 18.33L39.86 18.33L39.86 18.33Q40.50 18.84 41.54 18.84L41.54 18.84L41.54 18.84Q42.58 18.84 43.07 18.39L43.07 18.39L43.07 18.39Q43.56 17.94 43.56 17.27L43.56 17.27L43.56 17.27Q43.56 16.60 42.90 16.08L42.90 16.08L42.90 16.08Q42.49 15.77 40.89 15.09L40.89 15.09L40.89 15.09Q39.30 14.41 38.65 13.73L38.65 13.73L38.65 13.73Q38.00 13.06 38.00 11.90L38.00 11.90L38.00 11.90Q38.00 10.74 39.00 9.95L39.00 9.95L39.00 9.95Q40.00 9.15 41.53 9.15L41.53 9.15L41.82 9.15L41.82 9.15Q43.82 9.15 44.60 9.66L44.60 9.66L44.60 9.66Q44.96 9.88 44.96 10.75L44.96 10.75L44.96 10.75Q44.96 12.02 44.33 12.02L44.33 12.02L44.33 12.02Q44.11 12.02 43.69 11.37L43.69 11.37L43.69 11.37Q43.27 10.71 42.83 10.40L42.83 10.40L42.83 10.40Q42.38 10.09 41.54 10.09L41.54 10.09L41.54 10.09Q40.69 10.09 40.23 10.47L40.23 10.47L40.23 10.47Q39.76 10.86 39.76 11.53L39.76 11.53L39.76 11.53Q39.76 12.19 40.51 12.71L40.51 12.71L40.51 12.71Q40.94 13.00 42.38 13.58L42.38 13.58L42.38 13.58Q43.81 14.17 44.49 14.76L44.49 14.76L44.49 14.76Q45.39 15.54 45.39 16.65ZM55.89 5.88L55.89 5.88L55.89 5.58L55.89 5.58Q55.91 5.49 55.91 5.32L55.91 5.32L55.91 5.32Q55.91 5.16 56.26 4.80L56.26 4.80L56.26 4.80Q56.62 4.45 56.98 4.45L56.98 4.45L57.20 4.42L57.37 4.42L57.37 4.42Q57.81 4.42 58.19 4.73L58.19 4.73L58.19 4.73Q58.57 5.05 58.57 5.44L58.57 5.44L58.60 5.69L58.60 5.79L58.56 6.04L58.56 6.04Q58.56 6.36 58.17 6.68L58.17 6.68L58.17 6.68Q57.78 7.00 57.45 7.00L57.45 7.00L57.20 7.04L57.15 7.04L57.11 7.03L57.02 7.03L57.02 7.03Q56.94 7.00 56.90 7.00L56.90 7.00L56.90 7.00Q56.58 7.00 56.23 6.65L56.23 6.65L56.23 6.65Q55.89 6.31 55.89 5.88ZM56.29 19.66L55.65 19.66L55.65 19.66Q54.94 19.66 54.94 19.23L54.94 19.23L54.94 19.23Q54.94 18.95 55.50 18.70L55.50 18.70L55.50 18.70Q56.06 18.44 56.19 17.97L56.19 17.97L56.19 17.97Q56.33 17.49 56.33 14.62L56.33 14.62L56.34 14.29L56.34 13.95L56.35 13.62L56.35 12.96L56.32 11.97L56.32 11.97Q56.32 11.11 56.13 10.88L56.13 10.88L56.13 10.88Q55.94 10.66 55.39 10.51L55.39 10.51L55.39 10.51Q54.84 10.36 54.84 10.08L54.84 10.08L54.84 10.08Q54.84 9.85 55.08 9.71L55.08 9.71L55.08 9.71Q55.83 9.26 57.54 9.26L57.54 9.26L57.54 9.26Q58.16 9.26 58.27 9.70L58.27 9.70L58.27 9.70Q58.32 9.93 58.32 13.79L58.32 13.79L58.32 13.79Q58.32 17.66 58.44 18.07L58.44 18.07L58.44 18.07Q58.56 18.49 59.17 18.73L59.17 18.73L59.17 18.73Q59.77 18.97 59.77 19.16L59.77 19.16L59.77 19.28L59.77 19.28Q59.77 19.59 58.84 19.59L58.84 19.59L58.84 19.59Q58.52 19.62 58.37 19.62L58.37 19.62L57.88 19.63L57.41 19.63L56.29 19.66ZM70.31 16.65L70.31 16.65L70.31 16.94L70.31 16.94Q70.31 17.47 70.03 18.04L70.03 18.04L70.03 18.04Q69.75 18.62 69.19 19.01L69.19 19.01L69.19 19.01Q68.12 19.77 66.56 19.77L66.56 19.77L66.27 19.77L66.27 19.77Q64.25 19.77 63.19 19.21L63.19 19.21L63.19 19.21Q62.69 18.94 62.69 17.92L62.69 17.92L62.69 17.66L62.69 17.66Q62.69 16.55 63.28 16.55L63.28 16.55L63.28 16.55Q63.56 16.55 64.01 17.31L64.01 17.31L64.01 17.31Q64.46 18.07 64.78 18.33L64.78 18.33L64.78 18.33Q65.43 18.84 66.47 18.84L66.47 18.84L66.47 18.84Q67.51 18.84 68.00 18.39L68.00 18.39L68.00 18.39Q68.49 17.94 68.49 17.27L68.49 17.27L68.49 17.27Q68.49 16.60 67.82 16.08L67.82 16.08L67.82 16.08Q67.41 15.77 65.82 15.09L65.82 15.09L65.82 15.09Q64.22 14.41 63.57 13.73L63.57 13.73L63.57 13.73Q62.92 13.06 62.92 11.90L62.92 11.90L62.92 11.90Q62.92 10.74 63.92 9.95L63.92 9.95L63.92 9.95Q64.92 9.15 66.46 9.15L66.46 9.15L66.75 9.15L66.75 9.15Q68.75 9.15 69.53 9.66L69.53 9.66L69.53 9.66Q69.88 9.88 69.88 10.75L69.88 10.75L69.88 10.75Q69.88 12.02 69.25 12.02L69.25 12.02L69.25 12.02Q69.04 12.02 68.62 11.37L68.62 11.37L68.62 11.37Q68.20 10.71 67.75 10.40L67.75 10.40L67.75 10.40Q67.31 10.09 66.46 10.09L66.46 10.09L66.46 10.09Q65.62 10.09 65.15 10.47L65.15 10.47L65.15 10.47Q64.68 10.86 64.68 11.53L64.68 11.53L64.68 11.53Q64.68 12.19 65.44 12.71L65.44 12.71L65.44 12.71Q65.87 13.00 67.30 13.58L67.30 13.58L67.30 13.58Q68.73 14.17 69.41 14.76L69.41 14.76L69.41 14.76Q70.31 15.54 70.31 16.65ZM84.88 14.62L84.88 14.62L84.88 14.62Q83.49 14.62 82.62 15.30L82.62 15.30L82.62 15.30Q81.75 15.97 81.75 16.77L81.75 16.77L81.75 17.13L81.75 17.13Q81.77 17.26 81.77 17.35L81.77 17.35L81.77 17.35Q81.77 17.86 82.22 18.22L82.22 18.22L82.22 18.22Q82.68 18.57 83.13 18.57L83.13 18.57L83.47 18.57L83.47 18.57Q84.18 18.57 85.08 17.95L85.08 17.95L85.08 17.95Q85.72 17.50 85.72 16.81L85.72 16.81L85.72 16.81Q85.74 16.68 85.74 16.62L85.74 16.62L85.76 16.34L85.76 16.01L85.77 15.80L85.77 15.06L85.77 15.06Q85.77 14.59 85.49 14.59L85.49 14.59L85.23 14.59L85.23 14.59Q85.03 14.62 84.88 14.62ZM83.97 9.12L83.97 9.12L84.24 9.12L84.24 9.12Q86.48 9.12 87.31 10.48L87.31 10.48L87.31 10.48Q87.81 11.32 87.81 14.37L87.81 14.37L87.81 14.37Q87.81 17.42 87.90 17.71L87.90 17.71L87.90 17.71Q88.04 18.20 88.51 18.36L88.51 18.36L88.51 18.36Q89.29 18.63 89.29 18.72L89.29 18.72L89.29 18.88L89.29 18.88Q89.29 19.10 88.79 19.39L88.79 19.39L88.79 19.39Q88.30 19.68 87.33 19.68L87.33 19.68L87.33 19.68Q86.77 19.68 86.32 19.19L86.32 19.19L86.32 19.19Q85.87 18.70 85.73 18.70L85.73 18.70L85.73 18.70Q85.72 18.70 84.54 19.25L84.54 19.25L84.54 19.25Q83.36 19.80 82.68 19.80L82.68 19.80L82.17 19.80L82.17 19.80Q81.14 19.80 80.44 19.07L80.44 19.07L80.44 19.07Q79.74 18.35 79.74 17.50L79.74 17.50L79.74 17.23L79.74 17.23Q79.74 15.88 80.76 15.06L80.76 15.06L80.76 15.06Q81.46 14.50 82.77 14.14L82.77 14.14L82.77 14.14Q82.92 14.09 83.95 13.87L83.95 13.87L83.95 13.87Q84.98 13.65 85.20 13.55L85.20 13.55L85.20 13.55Q85.79 13.26 85.79 12.28L85.79 12.28L85.79 12.28Q85.79 11.31 85.27 10.75L85.27 10.75L85.27 10.75Q84.74 10.18 83.83 10.18L83.83 10.18L83.83 10.18Q82.92 10.18 82.24 11.18L82.24 11.18L82.24 11.18Q81.56 12.18 80.83 12.18L80.83 12.18L80.83 12.18Q80.67 12.18 80.42 11.95L80.42 11.95L80.42 11.95Q80.18 11.71 80.18 11.20L80.18 11.20L80.18 11.20Q80.18 10.42 81.01 9.93L81.01 9.93L81.01 9.93Q82.38 9.12 83.97 9.12ZM98.57 9.99L98.57 9.99L98.57 9.99Q98.57 9.74 99.11 9.44L99.11 9.44L99.11 9.44Q99.65 9.14 99.81 8.92L99.81 8.92L99.81 8.92Q99.97 8.70 100.36 7.61L100.36 7.61L100.36 7.61Q100.75 6.51 101.19 6.51L101.19 6.51L101.19 6.51Q101.62 6.51 101.77 6.85L101.77 6.85L101.77 6.85Q101.83 7.01 101.93 7.73L101.93 7.73L101.93 7.73Q102.03 8.44 102.29 8.74L102.29 8.74L102.29 8.74Q102.54 9.03 103.52 9.26L103.52 9.26L103.52 9.26Q104.50 9.49 104.50 9.88L104.50 9.88L104.50 9.88Q104.50 10.27 103.44 10.44L103.44 10.44L103.44 10.44Q102.37 10.60 102.19 10.92L102.19 10.92L102.19 10.92Q101.85 11.52 101.85 14.26L101.85 14.26L101.85 14.26Q101.85 17.00 102.14 17.69L102.14 17.69L102.14 17.69Q102.44 18.37 103.05 18.37L103.05 18.37L103.05 18.37Q103.39 18.37 103.99 18.18L103.99 18.18L103.99 18.18Q104.58 17.99 104.70 17.99L104.70 17.99L104.70 17.99Q105.06 17.99 105.06 18.41L105.06 18.41L105.06 18.41Q105.06 18.93 103.92 19.43L103.92 19.43L103.92 19.43Q103.26 19.72 102.54 19.72L102.54 19.72L102.54 19.72Q101.81 19.72 101.22 19.39L101.22 19.39L101.22 19.39Q100.62 19.06 100.31 18.47L100.31 18.47L100.31 18.47Q99.85 17.60 99.85 14.78L99.85 14.78L99.85 13.89L99.83 13.03L99.83 13.03Q99.83 11.67 99.62 11.16L99.62 11.16L99.62 11.16Q99.41 10.66 99.14 10.48L99.14 10.48L99.14 10.48Q98.57 10.13 98.57 9.99ZM112.67 14.62L112.67 14.62L112.67 14.62Q111.28 14.62 110.41 15.30L110.41 15.30L110.41 15.30Q109.54 15.97 109.54 16.77L109.54 16.77L109.54 17.13L109.54 17.13Q109.56 17.26 109.56 17.35L109.56 17.35L109.56 17.35Q109.56 17.86 110.02 18.22L110.02 18.22L110.02 18.22Q110.47 18.57 110.92 18.57L110.92 18.57L111.27 18.57L111.27 18.57Q111.98 18.57 112.87 17.95L112.87 17.95L112.87 17.95Q113.51 17.50 113.51 16.81L113.51 16.81L113.51 16.81Q113.53 16.68 113.53 16.62L113.53 16.62L113.56 16.34L113.56 16.01L113.57 15.80L113.57 15.06L113.57 15.06Q113.57 14.59 113.29 14.59L113.29 14.59L113.02 14.59L113.02 14.59Q112.83 14.62 112.67 14.62ZM111.76 9.12L111.76 9.12L112.03 9.12L112.03 9.12Q114.28 9.12 115.10 10.48L115.10 10.48L115.10 10.48Q115.61 11.32 115.61 14.37L115.61 14.37L115.61 14.37Q115.61 17.42 115.69 17.71L115.69 17.71L115.69 17.71Q115.83 18.20 116.31 18.36L116.31 18.36L116.31 18.36Q117.08 18.63 117.08 18.72L117.08 18.72L117.08 18.88L117.08 18.88Q117.08 19.10 116.58 19.39L116.58 19.39L116.58 19.39Q116.09 19.68 115.12 19.68L115.12 19.68L115.12 19.68Q114.57 19.68 114.11 19.19L114.11 19.19L114.11 19.19Q113.66 18.70 113.52 18.70L113.52 18.70L113.52 18.70Q113.51 18.70 112.33 19.25L112.33 19.25L112.33 19.25Q111.15 19.80 110.47 19.80L110.47 19.80L109.97 19.80L109.97 19.80Q108.94 19.80 108.23 19.07L108.23 19.07L108.23 19.07Q107.53 18.35 107.53 17.50L107.53 17.50L107.53 17.23L107.53 17.23Q107.53 15.88 108.55 15.06L108.55 15.06L108.55 15.06Q109.25 14.50 110.56 14.14L110.56 14.14L110.56 14.14Q110.71 14.09 111.74 13.87L111.74 13.87L111.74 13.87Q112.77 13.65 113.00 13.55L113.00 13.55L113.00 13.55Q113.59 13.26 113.59 12.28L113.59 12.28L113.59 12.28Q113.59 11.31 113.06 10.75L113.06 10.75L113.06 10.75Q112.54 10.18 111.62 10.18L111.62 10.18L111.62 10.18Q110.71 10.18 110.03 11.18L110.03 11.18L110.03 11.18Q109.36 12.18 108.63 12.18L108.63 12.18L108.63 12.18Q108.46 12.18 108.22 11.95L108.22 11.95L108.22 11.95Q107.97 11.71 107.97 11.20L107.97 11.20L107.97 11.20Q107.97 10.42 108.81 9.93L108.81 9.93L108.81 9.93Q110.17 9.12 111.76 9.12ZM126.24 13.06L126.23 12.97L126.21 12.53L126.21 12.53Q126.21 11.38 125.50 10.43L125.50 10.43L125.50 10.43Q125.00 9.75 124.29 9.75L124.29 9.75L123.92 9.75L123.92 9.75Q123.27 9.75 122.69 10.52L122.69 10.52L122.69 10.52Q122.12 11.28 122.12 12.42L122.12 12.42L122.12 12.89L122.13 12.99L122.13 12.99Q122.13 13.98 122.59 14.69L122.59 14.69L122.59 14.69Q123.04 15.40 124.03 15.40L124.03 15.40L124.29 15.40L124.29 15.40Q125.05 15.40 125.63 14.87L125.63 14.87L125.63 14.87Q126.21 14.34 126.21 13.56L126.21 13.56L126.22 13.48L126.23 13.40L126.24 13.06ZM123.39 19.28L123.20 19.28L123.20 19.28Q122.38 19.28 121.94 19.69L121.94 19.69L121.94 19.69Q121.23 20.35 121.23 21.16L121.23 21.16L121.23 21.36L121.24 21.44L121.24 21.44Q121.24 22.26 122.01 22.85L122.01 22.85L122.01 22.85Q122.77 23.44 124.01 23.44L124.01 23.44L124.60 23.44L124.60 23.44Q124.81 23.42 124.90 23.42L124.90 23.42L124.90 23.42Q126.17 23.42 127.04 22.68L127.04 22.68L127.04 22.68Q127.91 21.95 127.91 21.10L127.91 21.10L127.91 21.01L127.91 21.01Q127.91 20.30 127.33 19.87L127.33 19.87L127.33 19.87Q126.75 19.43 125.79 19.43L125.79 19.43L125.79 19.43Q125.41 19.39 125.21 19.39L125.21 19.39L125.02 19.37L123.86 19.30L123.76 19.29L123.39 19.28ZM125.28 9.15L125.28 9.15Q125.58 9.16 125.73 9.16L125.73 9.16L125.73 9.16Q125.88 9.16 126.74 9.20L126.74 9.20L127.02 9.21L127.55 9.24L127.55 9.24Q127.74 9.24 128.12 9.22L128.12 9.22L128.68 9.18L128.68 9.18Q129.77 9.18 129.77 9.65L129.77 9.65L129.77 9.65Q129.77 10.26 128.91 10.37L128.91 10.37L128.91 10.37Q128.06 10.48 128.06 10.95L128.06 10.95L128.11 11.18L128.27 11.74L128.27 11.74Q128.39 12.24 128.39 12.89L128.39 12.89L128.39 12.89Q128.39 13.50 128.04 14.17L128.04 14.17L128.04 14.17Q127.04 16.09 124.15 16.22L124.15 16.22L124.15 16.22Q122.93 16.29 122.67 16.41L122.67 16.41L122.67 16.41Q122.16 16.67 122.16 17.20L122.16 17.20L122.16 17.20Q122.16 17.72 123.11 17.93L123.11 17.93L123.11 17.93Q123.36 17.99 125.31 18.12L125.31 18.12L125.31 18.12Q127.24 18.25 128.02 18.59L128.02 18.59L128.02 18.59Q129.48 19.26 129.48 20.88L129.48 20.88L129.48 20.88Q129.48 22.49 127.95 23.54L127.95 23.54L127.95 23.54Q126.40 24.58 124.30 24.58L124.30 24.58L124.30 24.58Q121.24 24.58 120.20 23.20L120.20 23.20L120.20 23.20Q119.75 22.62 119.75 21.84L119.75 21.84L119.75 21.84Q119.75 21.07 120.50 20.24L120.50 20.24L120.50 20.24Q121.24 19.41 121.24 19.23L121.24 19.23L121.17 19.05L120.80 18.64L120.80 18.64Q120.52 18.25 120.52 17.77L120.52 17.77L120.52 17.77Q120.52 17.28 120.98 16.63L120.98 16.63L120.98 16.63Q121.45 15.97 121.45 15.76L121.45 15.76L121.45 15.76Q121.46 15.57 121.18 15.18L121.18 15.18L121.18 15.18Q120.28 13.93 120.28 12.72L120.28 12.72L120.28 12.72Q120.28 12.00 120.65 11.28L120.65 11.28L120.65 11.28Q121.73 9.14 124.98 9.14L124.98 9.14L125.28 9.15ZM133.59 17.85L133.59 17.85Q133.77 16.76 133.77 11.55L133.77 11.55L133.77 11.55Q133.77 6.35 133.66 5.79L133.66 5.79L133.66 5.79Q133.55 5.23 133.07 5.02L133.07 5.02L133.07 5.02Q132.37 4.72 132.37 4.50L132.37 4.50L132.37 4.50Q132.37 4.28 132.64 4.15L132.64 4.15L132.64 4.15Q133.51 3.73 135.18 3.73L135.18 3.73L135.18 3.73Q135.82 3.73 135.90 4.38L135.90 4.38L135.90 4.38Q135.92 4.53 135.92 7.35L135.92 7.35L135.91 8.01L135.91 8.91L135.89 9.79L135.89 10.68L135.89 10.68Q135.89 17.06 135.97 17.65L135.97 17.65L135.97 17.65Q136.05 18.25 136.51 18.54L136.51 18.54L136.51 18.54Q137.36 19.08 137.36 19.15L137.36 19.15L137.36 19.15Q137.36 19.54 135.86 19.54L135.86 19.54L135.43 19.56L133.46 19.60L133.01 19.60L133.01 19.60Q132.44 19.60 132.44 19.29L132.44 19.29L132.44 19.29Q132.44 19.05 132.97 18.73L132.97 18.73L132.97 18.73Q133.50 18.42 133.59 17.85L133.59 17.85ZM141.07 5.88L141.07 5.88L141.07 5.58L141.07 5.58Q141.09 5.49 141.09 5.32L141.09 5.32L141.09 5.32Q141.09 5.16 141.45 4.80L141.45 4.80L141.45 4.80Q141.80 4.45 142.17 4.45L142.17 4.45L142.38 4.42L142.55 4.42L142.55 4.42Q142.99 4.42 143.37 4.73L143.37 4.73L143.37 4.73Q143.75 5.05 143.75 5.44L143.75 5.44L143.79 5.69L143.79 5.79L143.74 6.04L143.74 6.04Q143.74 6.36 143.35 6.68L143.35 6.68L143.35 6.68Q142.96 7.00 142.64 7.00L142.64 7.00L142.38 7.04L142.34 7.04L142.29 7.03L142.21 7.03L142.21 7.03Q142.12 7.00 142.08 7.00L142.08 7.00L142.08 7.00Q141.77 7.00 141.42 6.65L141.42 6.65L141.42 6.65Q141.07 6.31 141.07 5.88ZM141.48 19.66L140.83 19.66L140.83 19.66Q140.12 19.66 140.12 19.23L140.12 19.23L140.12 19.23Q140.12 18.95 140.68 18.70L140.68 18.70L140.68 18.70Q141.24 18.44 141.38 17.97L141.38 17.97L141.38 17.97Q141.51 17.49 141.51 14.62L141.51 14.62L141.52 14.29L141.52 13.95L141.53 13.62L141.53 12.96L141.50 11.97L141.50 11.97Q141.50 11.11 141.31 10.88L141.31 10.88L141.31 10.88Q141.12 10.66 140.58 10.51L140.58 10.51L140.58 10.51Q140.03 10.36 140.03 10.08L140.03 10.08L140.03 10.08Q140.03 9.85 140.26 9.71L140.26 9.71L140.26 9.71Q141.02 9.26 142.72 9.26L142.72 9.26L142.72 9.26Q143.35 9.26 143.45 9.70L143.45 9.70L143.45 9.70Q143.51 9.93 143.51 13.79L143.51 13.79L143.51 13.79Q143.51 17.66 143.63 18.07L143.63 18.07L143.63 18.07Q143.74 18.49 144.35 18.73L144.35 18.73L144.35 18.73Q144.96 18.97 144.96 19.16L144.96 19.16L144.96 19.28L144.96 19.28Q144.96 19.59 144.02 19.59L144.02 19.59L144.02 19.59Q143.70 19.62 143.55 19.62L143.55 19.62L143.07 19.63L142.59 19.63L141.48 19.66ZM152.18 19.11L152.18 19.11L152.18 19.11Q152.18 19.51 150.79 19.51L150.79 19.51L149.80 19.48L149.80 19.48Q149.48 19.46 148.84 19.46L148.84 19.46L148.84 19.46Q147.84 19.46 147.84 18.95L147.84 18.95L147.84 18.95Q147.84 18.78 148.38 18.52L148.38 18.52L148.38 18.52Q148.92 18.26 149.06 17.94L149.06 17.94L149.06 17.94Q149.19 17.63 149.19 16.23L149.19 16.23L149.19 14.34L149.17 13.67L149.17 12.46L149.17 12.46Q149.17 11.58 149.05 11.19L149.05 11.19L149.05 11.19Q148.92 10.80 148.45 10.54L148.45 10.54L148.45 10.54Q147.98 10.29 147.98 10.18L147.98 10.18L147.98 10.18Q147.98 9.86 148.32 9.70L148.32 9.70L148.32 9.70Q149.01 9.39 150.20 9.39L150.20 9.39L150.20 9.39Q150.81 9.39 151.04 9.86L151.04 9.86L151.04 9.86Q151.40 10.60 151.45 10.60L151.45 10.60L151.45 10.60Q151.48 10.60 151.91 10.30L151.91 10.30L151.91 10.30Q153.40 9.23 154.61 9.22L154.61 9.22L154.94 9.22L154.94 9.22Q156.85 9.23 157.62 10.88L157.62 10.88L157.62 10.88Q158.01 11.72 158.01 15.81L158.01 15.81L158.01 15.81Q158.01 17.81 158.16 18.09L158.16 18.09L158.16 18.09Q158.30 18.37 158.85 18.63L158.85 18.63L158.85 18.63Q159.41 18.88 159.41 19.08L159.41 19.08L159.41 19.08Q159.41 19.53 156.46 19.53L156.46 19.53L156.14 19.53L156.14 19.53Q155.20 19.53 155.20 19.24L155.20 19.24L155.20 19.24Q155.20 18.95 155.53 18.64L155.53 18.64L155.53 18.64Q155.86 18.33 155.93 18.14L155.93 18.14L155.93 18.14Q156.00 17.96 156.00 17.26L156.00 17.26L156.00 17.26Q156.00 16.56 155.99 16.23L155.99 16.23L155.97 15.57L155.97 14.18L155.97 14.18Q155.97 11.97 155.52 11.21L155.52 11.21L155.52 11.21Q155.08 10.45 153.92 10.45L153.92 10.45L153.92 10.45Q153.34 10.45 152.69 10.79L152.69 10.79L152.69 10.79Q152.05 11.13 151.65 11.69L151.65 11.69L151.65 11.69Q151.25 12.25 151.25 14.52L151.25 14.52L151.19 16.54L151.19 16.54Q151.19 17.57 151.34 17.97L151.34 17.97L151.34 17.97Q151.49 18.36 151.83 18.67L151.83 18.67L151.83 18.67Q152.18 18.98 152.18 19.11ZM164.88 13.49L164.88 13.49L165.16 13.49L167.21 13.35L167.21 13.35Q167.58 13.30 167.75 13.30L167.75 13.30L167.75 13.30Q168.46 13.30 168.74 13.02L168.74 13.02L168.74 13.02Q168.86 12.90 168.86 12.46L168.86 12.46L168.86 12.46Q168.86 11.44 168.27 10.77L168.27 10.77L168.27 10.77Q167.67 10.10 166.83 10.10L166.83 10.10L166.62 10.10L166.62 10.10Q165.65 10.10 164.89 10.94L164.89 10.94L164.89 10.94Q164.13 11.77 164.13 12.83L164.13 12.83L164.11 12.97L164.11 13.03L164.11 13.03Q164.11 13.45 164.56 13.45L164.56 13.45L164.56 13.45Q164.78 13.49 164.88 13.49ZM164.05 15.30L164.05 15.30L164.05 15.30Q164.05 16.79 165.00 17.65L165.00 17.65L165.00 17.65Q165.96 18.51 167.52 18.51L167.52 18.51L167.52 18.51Q168.16 18.51 169.22 18.03L169.22 18.03L169.22 18.03Q170.27 17.54 170.30 17.54L170.30 17.54L170.30 17.54Q170.68 17.54 170.68 17.90L170.68 17.90L170.68 17.90Q170.68 18.56 169.18 19.29L169.18 19.29L169.18 19.29Q168.16 19.79 167.00 19.79L167.00 19.79L166.76 19.79L166.76 19.79Q164.48 19.79 163.19 18.36L163.19 18.36L163.19 18.36Q161.90 16.94 161.90 14.65L161.90 14.65L161.90 14.41L161.90 14.41Q161.90 14.38 161.90 14.35L161.90 14.35L161.90 14.35Q161.90 13.41 162.28 12.45L162.28 12.45L162.28 12.45Q163.07 10.40 164.80 9.63L164.80 9.63L164.80 9.63Q165.89 9.14 166.79 9.14L166.79 9.14L167.26 9.14L167.26 9.14Q168.67 9.14 169.71 10.04L169.71 10.04L169.71 10.04Q170.27 10.53 170.58 11.27L170.58 11.27L170.58 11.27Q170.89 12.01 170.89 12.58L170.89 12.58L170.89 12.80L170.89 12.80Q170.89 13.62 170.23 13.90L170.23 13.90L170.23 13.90Q169.84 14.06 167.42 14.23L167.42 14.23L167.42 14.23Q164.99 14.41 164.69 14.49L164.69 14.49L164.69 14.49Q164.05 14.67 164.05 15.30Z" transform="rotate(0 85.71999818086624 14.15500020980835)"></path><defs id="SvgjsDefs1022"></defs></svg></g></svg>